<svg width="97" height="70" viewBox="0 0 97 70" fill="none" xmlns="http://www.w3.org/2000/svg">
<g clip-path="url(#clip0)">
<path d="M24.8 41.6006L32.7 44.9006L38.7 49.1006L27.1 54.0006L24.6 53.4006L24 46.0006L24.8 41.6006Z" fill="#DABC73"/>
<path d="M24.8 41.6006L24.1 41.7006L9 45.3006L20.2 55.4006L24.6 54.9006L24.8 41.6006Z" fill="#CFA848"/>
<path d="M24.8 41.6L30.7 37L43.5 43.7L38.6 49.1L24.8 41.6Z" fill="#DABC73"/>
<path d="M24.8 41.5998L21.2 35.7998L5.8 39.0998L9 45.2998L24.8 41.5998Z" fill="#E6D590"/>
<path d="M16.7 54.6004L13.9 50.9004C13.8 51.3004 13.8 51.7004 14 52.2004C14.2 53.2004 15.2 54.2004 16.1 54.5004C16.3 54.6004 16.5 54.6004 16.7 54.6004Z" fill="#EC9C4C"/>
<path d="M27.6 44.1002L23.2 40.2002C22.7 40.3002 22.3 40.6002 21.9 40.9002C18.7 43.7002 16.2 46.2002 14.7 49.1002C14.4 49.7002 14.2 50.1002 14.1 50.5002L17.1 54.5002C17.9 54.4002 18.8 54.1002 19.2 55.6002C19.8 57.5002 23.3 61.0002 23.3 61.0002C23.2 62.7002 24.5 62.0002 25.5 61.2002C26.3 60.5002 28 58.6002 26.2 58.7002C26.2 58.7002 24.8 54.3002 23.2 52.9002C22.7 51.0002 25.7 49.4002 26.9 47.3002C27.5 46.1002 27.9 45.2002 28 44.4002L27.8 44.3002L22.4 50.3002L22.2 50.1002L27.6 44.1002ZM17.4 50.0002L17.1 50.2002L15.9 48.6002L16.2 48.4002L17.4 50.0002ZM18 49.4002L17.7 49.6002L16.5 48.0002L16.8 47.8002L18 49.4002ZM18.6 48.7002L18.3 48.9002L17.1 47.3002L17.4 47.1002L18.6 48.7002ZM19.3 48.0002L19 48.2002L17.8 46.6002L18.1 46.4002L19.3 48.0002Z" fill="#FF8700"/>
<path d="M24.2 53.5002C24.2 53.5002 24.8 52.8002 25.1 52.5002C25.4 52.2002 25.4 51.7002 25.2 51.4002C24.9 51.0002 24.6 50.7002 24.6 50.7002C24.6 50.7002 23.8 51.6002 23.7 52.0002C23.6 52.4002 23.6 52.7002 23.6 52.7002C23.6 52.7002 23.9 53.1002 24.2 53.5002Z" fill="#EC9C4C"/>
<path d="M29.8866 34.1728L29.4175 34.6924L32.8321 37.7748L33.3012 37.2552L29.8866 34.1728Z" fill="#EC9C4C"/>
<path d="M32.1 31.7002L30 34.0002L33.4 37.0002L35.5 34.7002L35.8 33.3002L33.5 31.2002L32.1 31.7002Z" fill="#2E2E2E"/>
<path d="M32.8223 39.7729L29.6068 43.3369L30.0522 43.7389L33.2678 40.1749L32.8223 39.7729Z" fill="#FF8700"/>
<path d="M38.2633 44.7314L35.0473 48.2949L35.4927 48.6969L38.7087 45.1334L38.2633 44.7314Z" fill="#FF8700"/>
<path d="M37.2 45.4002L35.6 47.2002C35.6 47.2002 34.4 46.6002 33.1 45.4002C31.9 44.3002 31 43.0002 31 43.0002L32.6 41.2002C32.6 41.2002 34 42.0002 35.1 43.0002C36.4 44.2002 37.2 45.4002 37.2 45.4002Z" fill="#2E2E2E"/>
<path d="M24.907 38.3697L23.5002 39.9287L28.1773 44.1491L29.5841 42.59L24.907 38.3697Z" fill="#EC9C4C"/>
<path d="M28.6818 34.2935L27.409 35.7041L32.0861 39.9245L33.3589 38.5139L28.6818 34.2935Z" fill="#EC9C4C"/>
<path d="M26.935 35.6165L24.7913 37.9922L29.7654 42.4805L31.9091 40.1048L26.935 35.6165Z" fill="#2E2E2E"/>
<path d="M20.1 69.2998L37 63.7998V53.2998L29 55.8998L20.1 54.8998V55.1998V69.2998Z" fill="#CFA848"/>
<path d="M10.1 52.8004L20.1 54.9004V69.3004L9 60.3004V52.4004L10.1 52.8004Z" fill="#DABC73"/>
<path d="M20.1 54.9006L28.9 56.8006L46.1 50.6006L38.6 49.1006L20.1 54.9006Z" fill="#DABC73"/>
<path d="M20.1 54.9004L10 54.5004L0 44.4004L9 45.3004L20.1 54.9004Z" fill="#E6D590"/>
<path d="M53 10.2998L60.9 13.6998L66.8 17.8998L55.3 22.7998L52.8 22.1998L52.1 14.7998L53 10.2998Z" fill="#DABC73"/>
<path d="M53 10.2998L52.2 10.4998L37.1 14.0998L48.4 24.1998L52.8 23.5998L53 10.2998Z" fill="#CFA848"/>
<path d="M53 10.2998L58.9 5.7998L71.7 12.4998L66.7 17.7998L53 10.2998Z" fill="#DABC73"/>
<path d="M53 10.3L49.3 4.5L33.9 7.9L37.1 14.1L53 10.3Z" fill="#E6D590"/>
<path d="M44.9 23.4002L42.1 19.7002C42 20.1002 42 20.5002 42.1 21.0002C42.3 22.0002 43.3 23.0002 44.2 23.3002C44.4 23.4002 44.6 23.4002 44.9 23.4002Z" fill="#EC9C4C"/>
<path d="M55.8 12.9L51.4 9C50.9 9.1 50.5 9.4 50.1 9.7C46.9 12.5 44.4 15 42.9 17.9C42.6 18.5 42.4 18.9 42.3 19.3L45.3 23.3C46.1 23.2 47 22.9 47.4 24.4C48 26.3 51.5 29.8 51.5 29.8C51.4 31.5 52.7 30.8 53.7 30C54.5 29.3 56.2 27.4 54.4 27.5C54.4 27.5 53 23.1 51.4 21.7C50.9 19.8 53.9 18.2 55.1 16.1C55.7 14.9 56.1 14 56.2 13.2L56 13.1L50.6 19.1L50.4 18.9L55.8 12.9ZM45.5 18.8L45.2 19L44 17.4L44.3 17.2L45.5 18.8ZM46.2 18.1L45.9 18.3L44.7 16.7L45 16.5L46.2 18.1ZM46.8 17.4L46.5 17.6L45.3 16L45.6 15.8L46.8 17.4ZM47.4 16.7L47.1 17L45.9 15.4L46.2 15.2L47.4 16.7Z" fill="#FF8700"/>
<path d="M52.3 22.2004C52.3 22.2004 52.9 21.5004 53.2 21.2004C53.5 20.9004 53.5 20.4004 53.3 20.1004C53 19.7004 52.7 19.4004 52.7 19.4004C52.7 19.4004 51.9 20.3004 51.8 20.7004C51.7 21.1004 51.7 21.4004 51.7 21.4004C51.7 21.4004 52.1 21.9004 52.3 22.2004Z" fill="#EC9C4C"/>
<path d="M58.0241 2.99894L57.5551 3.51855L60.9696 6.60101L61.4387 6.0814L58.0241 2.99894Z" fill="#EC9C4C"/>
<path d="M60.3 0.5L58.2 2.8L61.6 5.8L63.7 3.5L64 2.1L61.7 0L60.3 0.5Z" fill="#2E2E2E"/>
<path d="M60.8863 8.5317L57.6708 12.0957L58.1163 12.4976L61.3318 8.93364L60.8863 8.5317Z" fill="#FF8700"/>
<path d="M66.4687 13.4834L63.2527 17.0469L63.6981 17.4489L66.9141 13.8854L66.4687 13.4834Z" fill="#FF8700"/>
<path d="M65.4 14.1996L63.8 15.9996C63.8 15.9996 62.6 15.3996 61.3 14.1996C60.1 13.0996 59.2 11.8996 59.2 11.8996L60.8 10.0996C60.8 10.0996 62.2 10.8996 63.3 11.8996C64.6 12.8996 65.4 14.1996 65.4 14.1996Z" fill="#2E2E2E"/>
<path d="M53.1153 7.12142L51.7085 8.68066L56.3862 12.901L57.793 11.3418L53.1153 7.12142Z" fill="#EC9C4C"/>
<path d="M56.7462 3.05526L55.4734 4.46582L60.1506 8.68619L61.4234 7.27563L56.7462 3.05526Z" fill="#EC9C4C"/>
<path d="M55.0678 4.30303L52.9241 6.67871L57.8982 11.167L60.0418 8.79136L55.0678 4.30303Z" fill="#2E2E2E"/>
<path d="M48.3 38.0996L65.2 32.5996V22.0996L57.2 24.6996L48.3 23.5996V23.8996V38.0996Z" fill="#CFA848"/>
<path d="M38.2 21.4996L48.3 23.5996V38.0996L37.1 29.0996V21.0996L38.2 21.4996Z" fill="#DABC73"/>
<path d="M48.3 23.5998L57 25.5998L74.2 19.3998L66.7 17.7998L48.3 23.5998Z" fill="#DABC73"/>
<path d="M48.3 23.6002L38.2 23.3002L28.1 13.2002L37.1 14.1002L48.3 23.6002Z" fill="#E6D590"/>
<path d="M75.7 40.2998L83.6 43.5998L89.6 47.7998L78 52.7998L75.6 52.1998L74.9 44.7998L75.7 40.2998Z" fill="#DABC73"/>
<path d="M75.7 40.2998L75 40.3998L59.9 43.9998L71.2 54.0998L75.6 53.5998L75.7 40.2998Z" fill="#CFA848"/>
<path d="M75.7 40.3002L81.6 35.7002L94.4 42.5002L89.5 47.8002L75.7 40.3002Z" fill="#DABC73"/>
<path d="M75.7 40.3L72.1 34.5L56.7 37.9L59.9 44L75.7 40.3Z" fill="#E6D590"/>
<path d="M67.6 53.2996L64.8 49.5996C64.7 49.9996 64.7 50.3996 64.9 50.8996C65.1 51.8996 66.1 52.8996 67 53.1996C67.2 53.3996 67.4 53.3996 67.6 53.2996Z" fill="#EC9C4C"/>
<path d="M78.5 42.9L74.1 39C73.6 39.1 73.2 39.4 72.8 39.7C69.6 42.5 67.1 45 65.6 47.9C65.3 48.5 65.1 48.9 65 49.3L68 53.3C68.8 53.2 69.7 52.9 70.1 54.4C70.7 56.3 74.2 59.8 74.2 59.8C74.1 61.5 75.4 60.8 76.4 60C77.2 59.3 78.9 57.4 77.1 57.5C77.1 57.5 75.7 53.1 74.1 51.7C73.6 49.8 76.6 48.2 77.8 46.1C78.4 44.9 78.8 44 78.9 43.2L78.7 43L73.3 49L73.1 48.8L78.5 42.9ZM68.3 48.8L68 49L66.8 47.4L67.1 47.2L68.3 48.8ZM68.9 48.1L68.6 48.3L67.4 46.7L67.7 46.5L68.9 48.1ZM69.5 47.4L69.2 47.6L68 46L68.3 45.8L69.5 47.4ZM70.2 46.7L69.9 46.9L68.7 45.3L69 45.1L70.2 46.7Z" fill="#FF8700"/>
<path d="M75.1 52.2004C75.1 52.2004 75.7 51.5004 76 51.2004C76.3 50.9004 76.3 50.4004 76.1 50.1004C75.8 49.7004 75.5 49.4004 75.5 49.4004C75.5 49.4004 74.7 50.3004 74.6 50.7004C74.5 51.1004 74.5 51.4004 74.5 51.4004C74.5 51.4004 74.8 51.9004 75.1 52.2004Z" fill="#EC9C4C"/>
<path d="M80.7689 32.8935L80.2998 33.4131L83.7139 36.496L84.183 35.9765L80.7689 32.8935Z" fill="#EC9C4C"/>
<path d="M83 30.4L81 32.7L84.4 35.8L86.4 33.5L86.7 32L84.4 30L83 30.4Z" fill="#2E2E2E"/>
<path d="M83.7032 38.4887L80.4877 42.0527L80.9332 42.4547L84.1487 38.8907L83.7032 38.4887Z" fill="#FF8700"/>
<path d="M89.2188 43.5156L86.0028 47.0791L86.4482 47.4811L89.6642 43.9176L89.2188 43.5156Z" fill="#FF8700"/>
<path d="M88.1 44.1L86.5 45.9C86.5 45.9 85.3 45.3 84 44.1C82.8 43 81.9 41.8 81.9 41.8L83.5 40C83.5 40 84.9 40.8 86 41.8C87.3 42.9 88.1 44.1 88.1 44.1Z" fill="#2E2E2E"/>
<path d="M75.8611 37.1587L74.4543 38.7178L79.1314 42.9381L80.5382 41.3791L75.8611 37.1587Z" fill="#EC9C4C"/>
<path d="M79.5604 33.0123L78.2876 34.4229L82.9647 38.6432L84.2375 37.2327L79.5604 33.0123Z" fill="#EC9C4C"/>
<path d="M77.8817 34.2601L75.738 36.6357L80.7121 41.1241L82.8558 38.7484L77.8817 34.2601Z" fill="#2E2E2E"/>
<path d="M71 68.1L87.9 62.5V52L79.9 54.7L71 53.6V53.9V68.1Z" fill="#CFA848"/>
<path d="M61 51.4996L71 53.5996V68.0996L59.9 59.0996V51.0996L61 51.4996Z" fill="#DABC73"/>
<path d="M71 53.5998L79.8 55.5998L97 49.2998L89.5 47.7998L71 53.5998Z" fill="#DABC73"/>
<path d="M71 53.5996L60.9 53.1996L50.9 43.0996L59.9 43.9996L71 53.5996Z" fill="#E6D590"/>
</g>
<defs>
<clipPath id="clip0">
<rect width="97" height="69.3" fill="white"/>
</clipPath>
</defs>
</svg>
