<svg width="20" height="20" viewBox="0 0 30 27" xmlns="http://www.w3.org/2000/svg">
    <path d="M11.363 22.0481C11.2094 21.7404 10.9417 21.7092 10.8333 21.7092C10.725 21.7092 10.4573 21.7399 10.3115 22.031L9.91198 22.8284C9.58021 23.4928 8.60834 23.4195 8.37656 22.7198L7.5 20.0962L6.9474 21.7534C6.64063 22.6714 5.78177 23.2885 4.81198 23.2885H4.16667C3.70625 23.2885 3.33333 22.9163 3.33333 22.4567C3.33333 21.9972 3.70625 21.625 4.16667 21.625H4.81198C5.06354 21.625 5.28646 21.4649 5.36615 21.2268L6.31354 18.3864C6.48542 17.8765 6.96146 17.5334 7.5 17.5334C8.03854 17.5334 8.51459 17.876 8.68594 18.3864L9.40886 20.551C10.4375 19.7094 12.2245 20.0468 12.8464 21.2871C12.9448 21.4836 13.1323 21.5964 13.3339 21.6125V17.3437L20.0005 10.7371V8.31731H12.9167C12.2292 8.31731 11.6667 7.75589 11.6667 7.06971V0H1.25C0.557292 0 0 0.55622 0 1.2476V25.3678C0 26.0592 0.557292 26.6154 1.25 26.6154H18.75C19.4427 26.6154 20 26.0592 20 25.3678V23.2885L13.3333 23.2827C12.4938 23.2666 11.7406 22.8003 11.363 22.0481ZM20 6.33675C20 6.00925 19.8698 5.69216 19.6354 5.45823L14.5365 0.363882C14.3021 0.129958 13.9844 0 13.651 0H13.3333V6.65385H20V6.33675ZM15 18.0361V21.625H18.5932L27.0141 13.1632L23.4787 9.63456L15 18.0361ZM29.6115 8.69834L27.9516 7.04164C27.4339 6.52493 26.5938 6.52493 26.076 7.04164L24.6568 8.45818L28.1922 11.9868L29.6115 10.5703C30.1297 10.0535 30.1297 9.21506 29.6115 8.69834Z"
    />
</svg>
