<svg width="20" height="20" viewBox="0 0 30 36" xmlns="http://www.w3.org/2000/svg">
    <path d="M8.57143 12.6562C8.57143 10.5323 10.2537 8.80435 12.3214 8.80435H21.4286V3.8519C21.4286 2.94017 20.709 2.20109 19.8214 2.20109H14.4234C13.6812 0.886625 12.2971 0 10.7143 0C9.13145 0 7.74737 0.886625 7.00513 2.20109H1.60714C0.719531 2.20109 0 2.94017 0 3.8519V26.9633C0 27.875 0.719531 28.6141 1.60714 28.6141H8.57143V12.6562ZM10.7143 2.75136C11.6019 2.75136 12.3214 3.49044 12.3214 4.40217C12.3214 5.31391 11.6019 6.05299 10.7143 6.05299C9.82667 6.05299 9.10714 5.31391 9.10714 4.40217C9.10714 3.49044 9.82667 2.75136 10.7143 2.75136ZM23.0357 19.8098H30V33.5666C30 34.4783 29.2805 35.2174 28.3929 35.2174H12.3214C11.4338 35.2174 10.7143 34.4783 10.7143 33.5666V12.6562C10.7143 11.7445 11.4338 11.0054 12.3214 11.0054H21.4286V18.159C21.4286 19.0669 22.1518 19.8098 23.0357 19.8098ZM30 17.1919V17.6087H23.5714V11.0054H23.9772C24.4034 11.0054 24.8122 11.1794 25.1135 11.4889L29.5292 16.0246C29.8306 16.3342 30 16.7541 30 17.1919Z"/>
</svg>
