<svg width="27" height="22" viewBox="0 0 27 22" fill="none" xmlns="http://www.w3.org/2000/svg">
<path d="M16.2 13.75H10.8C10.0545 13.75 9.45 14.3657 9.45 15.125V20.625C9.45 21.3843 10.0545 22 10.8 22H16.2C16.9455 22 17.55 21.3843 17.55 20.625V15.125C17.55 14.3657 16.9455 13.75 16.2 13.75ZM8.1 1.375C8.1 0.615742 7.49545 0 6.75 0H1.35C0.604547 0 0 0.615742 0 1.375V6.875C0 7.63426 0.604547 8.25 1.35 8.25H5.38819L8.47463 13.7517C8.94291 12.9327 9.80437 12.375 10.8 12.375H10.8118L8.1 7.54145V5.5H17.55V2.75H8.1V1.375ZM25.65 0H20.25C19.5045 0 18.9 0.615742 18.9 1.375V6.875C18.9 7.63426 19.5045 8.25 20.25 8.25H25.65C26.3955 8.25 27 7.63426 27 6.875V1.375C27 0.615742 26.3955 0 25.65 0Z" fill="white"/>
</svg>
