<svg width="79" height="42" viewBox="0 0 79 42" fill="none" xmlns="http://www.w3.org/2000/svg">
<g clip-path="url(#clip0)">
<path d="M74.5 33.7004C74.5 33.7004 69 38.3004 57 34.9004C53.8 32.3004 50.6 34.4004 47.7 33.7004C44.8 33.0004 33.9 33.9004 33.9 33.9004C33.9 33.9004 30.4 36.3004 26.5 34.9004C22.6 33.5004 20.3 35.8004 14.7 34.9004C9.1 34.0004 1.4 35.7004 1.1 33.4004C0.899999 31.1004 7.5 24.3004 14.2 22.8004C20.9 21.3004 43.8 8.50035 53.2 9.70035C62.6 10.9004 80.4 29.0004 74.5 33.7004Z" fill="#363636"/>
<path d="M15 35.6002C15 38.3002 12.8 40.5002 10.1 40.5002C7.4 40.5002 5.2 38.3002 5.2 35.6002C5.2 32.9002 7.4 30.7002 10.1 30.7002C12.8 30.8002 15 33.0002 15 35.6002Z" fill="#363636"/>
<path d="M29.2 35.6002C29.2 38.3002 27 40.5002 24.3 40.5002C21.6 40.5002 19.4 38.3002 19.4 35.6002C19.4 32.9002 21.6 30.7002 24.3 30.7002C27.1 30.8002 29.2 33.0002 29.2 35.6002Z" fill="#363636"/>
<path d="M70.7 35.6002C70.7 38.3002 68.5 40.5002 65.8 40.5002C63.1 40.5002 60.9 38.3002 60.9 35.6002C60.9 32.9002 63.1 30.7002 65.8 30.7002C68.5 30.8002 70.7 33.0002 70.7 35.6002Z" fill="#363636"/>
<path d="M24.4 29.5C21 29.5 18.3 32.2 18.3 35.6C18.3 39 21 41.7 24.4 41.7C27.8 41.7 30.5 39 30.5 35.6C30.5 32.3 27.7 29.5 24.4 29.5ZM24.4 39.9C22 39.9 20.1 38 20.1 35.6C20.1 33.2 22 31.3 24.4 31.3C26.8 31.3 28.7 33.2 28.7 35.6C28.6 38 26.7 39.9 24.4 39.9Z" fill="#666666"/>
<path d="M65.8 29.5C62.4 29.5 59.7 32.2 59.7 35.6C59.7 39 62.4 41.7 65.8 41.7C69.2 41.7 71.9 39 71.9 35.6C71.9 32.3 69.2 29.5 65.8 29.5ZM65.8 39.9C63.4 39.9 61.5 38 61.5 35.6C61.5 33.2 63.4 31.3 65.8 31.3C68.2 31.3 70.1 33.2 70.1 35.6C70.1 38 68.2 39.9 65.8 39.9Z" fill="#666666"/>
<path d="M10.1 29.5C6.7 29.5 4 32.2 4 35.6C4 39 6.7 41.7 10.1 41.7C13.5 41.7 16.2 39 16.2 35.6C16.2 32.3 13.5 29.5 10.1 29.5ZM10.1 39.9C7.7 39.9 5.8 38 5.8 35.6C5.8 33.2 7.7 31.3 10.1 31.3C12.5 31.3 14.4 33.2 14.4 35.6C14.4 38 12.5 39.9 10.1 39.9Z" fill="#666666"/>
<path d="M46.6 0H2.9C1.3 0 0 1.3 0 2.9V32.7C0 33.5 0.2 34.4 0.9 34.8C2.3 35.7 2.6 34.1 2.8 33.3C3.8 30.2 6.7 27.9 10.1 27.9C12.4 27.9 14.4 28.9 15.8 30.4C16.4 31.1 18 31.1 18.6 30.5C20 29 22.1 28 24.4 28C27.9 28 30.8 30.3 31.8 33.5C32.2 34.8 33.4 35.7 34.3 35.7C37.6 35.7 46.7 35.7 46.7 35.7C48.3 35.7 49.6 34.4 49.6 32.8V2.9C49.5 1.3 48.2 0 46.6 0Z" fill="#24518C"/>
<path d="M23.7 0H2.9C1.3 0 0 1.3 0 2.9V32.7C0 33.5 0.2 34.4 0.9 34.8C2.3 35.7 2.6 34.1 2.8 33.3C3.8 30.2 6.7 27.9 10.1 27.9C12.4 27.9 14.4 28.9 15.8 30.4C16.4 31.1 18 31.1 18.6 30.5C19.9 29 21.7 28.1 23.7 27.9V0Z" fill="#295A99"/>
<path d="M71.6 22.5L54.2 22.8L53.6 9L66.5 11L71.6 22.5Z" fill="#295A99"/>
<path d="M77.5 30.3C77.3 23.1 74.1 23.9 72.1 19C68 8.9 64.1 7.5 58.6 7.5C55.5 7.5 53.8 7.5 53.8 7.5C52.4 7.5 51.7 8.9 51.7 10.5V32.7C51.7 34.3 53 35.6 54.6 35.6C54.6 35.6 55.3 35.5 56.4 35.6C57.5 35.6 58.2 34.4 58.3 33.9C59.1 30.5 62.1 28 65.8 28C69.2 28 72.1 30.3 73.1 33.4C73.6 34.8 74.5 35.2 75 35.1C75.9 35 76.3 34.4 76.7 33.8C77.5 33.7 78.2 32.9 78.2 31.9C78.2 31.2 77.9 30.6 77.5 30.3ZM66.5 20.2H57.2C55.6 20.2 54.3 18.9 54.3 17.3V13.3C54.3 11.7 55.3 10.4 56.9 10.4H57.8C59.4 10.4 60.5 10.4 62.2 10.7C63.5 10.9 64.8 11.7 66.9 14.6C68.1 16.3 68.5 17.4 68.7 18.6C68.8 19.5 68.1 20.2 66.5 20.2Z" fill="#FF8700"/>
<path d="M61.1 20.1996H57.2C55.6 20.1996 54.3 18.8996 54.3 17.2996V13.2996C54.3 11.6996 55.3 10.3996 56.9 10.3996H57.8C59 10.3996 60 10.3996 61.1 10.5996V7.69961C60.3 7.59961 59.5 7.59961 58.6 7.59961C55.5 7.59961 53.8 7.59961 53.8 7.59961C52.4 7.59961 51.7 8.99961 51.7 10.5996V32.7996C51.7 34.3996 53 35.6996 54.6 35.6996C54.6 35.6996 55.3 35.5996 56.4 35.6996C57.5 35.6996 58.2 34.4996 58.3 33.9996C58.7 32.1996 59.7 30.6996 61.1 29.6996V20.1996Z" fill="#EC9C4C"/>
</g>
<defs>
<clipPath id="clip0">
<rect width="78.2" height="41.8" fill="white"/>
</clipPath>
</defs>
</svg>
