<svg width="20" height="20" viewBox="0 0 30 35" xmlns="http://www.w3.org/2000/svg">
    <path fill-rule="evenodd" clip-rule="evenodd" d="M10.1786 17.3685H26.7857C28.5603 17.3685 30 18.8272 30 20.6251V31.4803C30 33.2782 28.5603 34.7369 26.7857 34.7369H3.21429C1.43973 34.7369 0 33.2782 0 31.4803V20.6251C0 18.8272 1.43973 17.3685 3.21429 17.3685H4.82143V10.4143C4.82143 4.71532 9.34152 0.0204204 14.9665 6.67951e-05C20.5915 -0.0202868 25.1786 4.61355 25.1786 10.3126V11.3981C25.1786 12.3004 24.4621 13.0264 23.5714 13.0264H21.4286C20.5379 13.0264 19.8214 12.3004 19.8214 11.3981V10.3126C19.8214 7.60554 17.6317 5.40056 14.9531 5.4277C12.3013 5.45484 10.1786 7.68695 10.1786 10.3736V17.3685ZM12 31.4803V28.001H7.5L14.9531 20.6251L21.4286 28.001H17.5V31.4803H12Z"/>
</svg>
